<?xml version="1.0" encoding="UTF-8"?><!DOCTYPE svg PUBLIC "-//W3C//DTD SVG 1.1//EN" "http://www.w3.org/Graphics/SVG/1.1/DTD/svg11.dtd"><svg xmlns="http://www.w3.org/2000/svg">
<symbol id="icon-bell" viewBox="0 0 19.409 22.998"><g transform="translate(-109 -13)"><path d="M127.933,32.279a.476.476,0,1,1-.408.721h-18.05a.477.477,0,0,1-.407-.722l1.63-2.726a8.117,8.117,0,0,0,1.151-4.164V23a6.673,6.673,0,0,1,4.75-6.386V14.9a1.9,1.9,0,0,1,3.8,0v1.71A6.673,6.673,0,0,1,125.15,23v2.388a8.113,8.113,0,0,0,1.151,4.164l1.632,2.727ZM116,34h5a2.563,2.563,0,0,1-5,0Z"/></g></symbol>
<symbol id="icon-arrow-down" viewBox="0 0 16 16">
    <path fill-rule="evenodd" d="M4.12 5.29L8 9.17l3.88-3.88a.996.996 0 1 1 1.41 1.41L8.7 11.29a.996.996 0 0 1-1.41 0L2.7 6.7a.996.996 0 0 1 0-1.41c.39-.38 1.03-.39 1.42 0z"/>
</symbol>
<symbol id="icon-arrow-left" viewBox="0 0 6.584 11.174">
  <path d="M4.12,5.29,8,9.17l3.88-3.88A1,1,0,1,1,13.29,6.7L8.7,11.29a1,1,0,0,1-1.41,0L2.7,6.7a1,1,0,0,1,0-1.41A1.017,1.017,0,0,1,4.12,5.29Z" transform="translate(11.582 -2.408) rotate(90)" fill-rule="evenodd"/>
</symbol>
<symbol id="icon-plus" viewBox="0 0 20 20">
<path d="M16 10c0 0.553-0.048 1-0.601 1h-4.399v4.399c0 0.552-0.447 0.601-1 0.601s-1-0.049-1-0.601v-4.399h-4.399c-0.552 0-0.601-0.447-0.601-1s0.049-1 0.601-1h4.399v-4.399c0-0.553 0.447-0.601 1-0.601s1 0.048 1 0.601v4.399h4.399c0.553 0 0.601 0.447 0.601 1z"></path>
</symbol>
<symbol id="icon-edit" viewBox="0 0 16 16">
    <path fill-rule="evenodd" d="M9.947 2.657l3.254 3.254-8.237 8.237-3.252-3.254 8.235-8.237zm5.724-.785L14.219.42a1.44 1.44 0 0 0-2.034 0l-1.39 1.39 3.254 3.254 1.622-1.622a1.11 1.11 0 0 0 0-1.571zM.009 15.468a.37.37 0 0 0 .448.44l3.626-.879-3.252-3.254-.822 3.693z"/>
</symbol>
<symbol id="icon-table" viewBox="0 0 13 14">
    <g fill-rule="evenodd" >
        <path d="M.5 1.069h12v12H.5z"/>
        <path d="M11.916 2v2h-11V2z"/>
    </g>
</symbol>
<symbol id="icon-confirmed" viewBox="0 0 24 24">
    <g fill="none" fill-rule="evenodd">
        <circle cx="12" cy="13" r="11" fill="#E3E6F7"/>
        <path fill="#5E6B85" fill-rule="nonzero" d="M11.96 0C5.367 0 0 5.366 0 11.96c0 6.596 5.366 11.962 11.96 11.962 6.596 0 11.962-5.366 11.962-11.961C23.922 5.366 18.556 0 11.96 0zm0 21.96c-5.513 0-10-4.485-10-10 0-5.513 4.487-10 10-10 5.515 0 10 4.487 10 10 0 5.515-4.485 10-10 10z"/>
        <path fill="#5E6B85" fill-rule="nonzero" d="M16.494 8.196l-6.222 5.824-2.845-2.663a.901.901 0 0 0-1.215 0 .768.768 0 0 0 0 1.137l3.453 3.231a.887.887 0 0 0 .607.236c.22 0 .44-.079.608-.236l6.83-6.392a.768.768 0 0 0 0-1.137.901.901 0 0 0-1.216 0z"/>
    </g>
</symbol>
<symbol id="icon-critical" viewBox="0 0 24 21">
    <g fill="none" fill-rule="evenodd">
        <path fill="#E3E6F7" d="M12 1.417l9.58 14.151a3 3 0 0 1-2.484 4.682H4.904a3 3 0 0 1-2.484-4.682L12 1.418z"/>
        <path fill="#5E6B85" fill-rule="nonzero" d="M23.734 18.05l-10-17.063A2.008 2.008 0 0 0 12 0c-.74 0-1.388.398-1.734.987l-10 17.063A1.94 1.94 0 0 0 0 19.03C0 20.118.896 21 2 21h20c1.104 0 2-.882 2-1.969 0-.357-.097-.693-.266-.982zm-21.735.983L11.998 1.97H12l.001.002L22 19.03l-20.001.002zM12 14.437c-.736 0-1.333.588-1.333 1.313s.596 1.313 1.333 1.313 1.333-.588 1.333-1.313-.596-1.313-1.333-1.313zm-1.333-5.906c0 .075.006.15.018.22l.657 3.828c.054.31.328.546.658.546s.604-.236.657-.546l.657-3.827c.013-.072.02-.146.02-.22 0-.725-.597-1.313-1.334-1.313-.736 0-1.333.588-1.333 1.312z"/>
    </g>
</symbol>
<symbol id="icon-critical-red" viewBox="0 0 24 21">
    <g fill="none" fill-rule="evenodd">
        <path fill="#e03939" fill-rule="nonzero"
              d="M23.734 18.05l-10-17.063A2.008 2.008 0 0 0 12 0c-.74 0-1.388.398-1.734.987l-10 17.063A1.94 1.94 0 0 0 0 19.03C0 20.118.896 21 2 21h20c1.104 0 2-.882 2-1.969 0-.357-.097-.693-.266-.982zm-21.735.983L11.998 1.97H12l.001.002L22 19.03l-20.001.002zM12 14.437c-.736 0-1.333.588-1.333 1.313s.596 1.313 1.333 1.313 1.333-.588 1.333-1.313-.596-1.313-1.333-1.313zm-1.333-5.906c0 .075.006.15.018.22l.657 3.828c.054.31.328.546.658.546s.604-.236.657-.546l.657-3.827c.013-.072.02-.146.02-.22 0-.725-.597-1.313-1.334-1.313-.736 0-1.333.588-1.333 1.312z"/>
    </g>
</symbol>
<symbol id="icon-info" viewBox="0 0 24 24">
    <g fill="none" fill-rule="evenodd">
        <circle cx="12" cy="12" r="11" fill="#E3E6F7"/>
        <path fill="#5E6B85" fill-rule="nonzero" d="M10.63 7.825c.044.087.088.175.132.24.043.067.11.132.153.198.066.066.132.132.22.197.065.044.153.11.262.132a1.348 1.348 0 0 0 .57.11c.088 0 .197 0 .285-.023.088-.021.175-.043.241-.087h.022c.088-.044.175-.088.263-.154.066-.043.132-.11.197-.175l.022-.022c.066-.066.11-.131.154-.197s.087-.132.11-.22c0-.021 0-.021.021-.043.044-.088.066-.197.088-.285.022-.088.022-.197.022-.285 0-.088 0-.197-.022-.285a2.036 2.036 0 0 0-.088-.285 1.244 1.244 0 0 0-.263-.394l-.044-.044c-.065-.066-.131-.11-.219-.176-.088-.043-.153-.087-.24-.131-.089-.044-.176-.066-.264-.088-.11-.022-.197-.022-.285-.022-.088 0-.197 0-.285.022a1.236 1.236 0 0 0-.263.088h-.022a2.39 2.39 0 0 0-.24.131c-.089.066-.154.11-.22.176a1.418 1.418 0 0 0-.175.197c-.044.066-.088.153-.132.241-.044.088-.066.175-.088.263-.021.11-.021.197-.021.285 0 .088 0 .197.021.285.022.175.066.263.088.35zM13.677 15.847h-.504v-5.37a.566.566 0 0 0-.57-.57H10.3a.566.566 0 0 0-.57.57v1.183c0 .307.242.57.57.57h.46v3.638h-.46a.566.566 0 0 0-.57.57v1.184c0 .307.242.57.57.57h3.376c.307 0 .57-.241.57-.57v-1.184a.585.585 0 0 0-.57-.591z"/>
        <path fill="#5E6B85" fill-rule="nonzero" d="M11.989 0C5.369 0 0 5.37 0 11.989c0 6.62 5.37 11.99 11.989 11.99 6.62 0 11.99-5.37 11.99-11.99S18.608 0 11.988 0zm0 22.4c-5.742 0-10.41-4.668-10.41-10.411 0-5.742 4.668-10.41 10.41-10.41 5.743 0 10.411 4.668 10.411 10.41 0 5.743-4.668 10.411-10.411 10.411z"/>
    </g>
</symbol>
<symbol id="icon-phone-in-circle" viewBox="0 0 485.213 485.212">
<g>
	<path d="M242.607,0C108.629,0,0.001,108.628,0.001,242.606c0,133.976,108.628,242.606,242.606,242.606
		c133.978,0,242.604-108.631,242.604-242.606C485.212,108.628,376.585,0,242.607,0z M370.719,353.989l-19.425,19.429
		c-3.468,3.463-13.623,5.624-13.949,5.624c-61.452,0.536-120.621-23.602-164.095-67.08c-43.593-43.618-67.759-102.998-67.11-164.657
		c0-0.028,2.224-9.892,5.689-13.324l19.424-19.427c7.108-7.141,20.762-10.368,30.327-7.168l4.086,1.363
		c9.537,3.197,19.55,13.742,22.185,23.457l9.771,35.862c2.635,9.743-0.919,23.604-8.025,30.712l-12.97,12.972
		c12.734,47.142,49.723,84.138,96.873,96.903l12.965-12.975c7.141-7.141,20.997-10.692,30.719-8.061l35.857,9.806
		c9.717,2.67,20.26,12.62,23.456,22.154l1.363,4.145C381.028,333.262,377.826,346.913,370.719,353.989z"/>
</g>
</symbol>
<symbol id="icon-email-in-circle" viewBox="0 0 216 216">
<path d="M108,0C48.353,0,0,48.353,0,108s48.353,108,108,108s108-48.353,108-108S167.647,0,108,0z M156.657,60L107.96,98.498
	L57.679,60H156.657z M161.667,156h-109V76.259l50.244,38.11c1.347,1.03,3.34,1.545,4.947,1.545c1.645,0,3.073-0.54,4.435-1.616
	l49.374-39.276V156z"/>
</symbol>
<symbol id="icon-waiting" viewBox="0 0 24 24">
    <g fill="none" fill-rule="evenodd">
        <circle cx="12" cy="12" r="11" fill="#E3E6F7"/>
        <path fill="#5E6B85" fill-rule="nonzero" d="M14.4 21.77c-.198.05-.4.094-.6.13a.964.964 0 0 0 .352 1.895c.238-.045.478-.096.713-.155a.963.963 0 1 0-.465-1.87zM21.522 8.86a.96.96 0 0 0 1.217.612.963.963 0 0 0 .612-1.217c-.076-.23-.16-.46-.25-.685a.963.963 0 1 0-1.79.715c.076.189.147.382.211.576zM17.53 20.396c-.17.112-.346.22-.523.322a.963.963 0 0 0 .963 1.668c.21-.12.419-.25.621-.383a.963.963 0 0 0-1.062-1.607zM23.95 11.55a.963.963 0 0 0-1.925.077c.008.203.01.409.005.612a.962.962 0 1 0 1.926.042c.005-.242.003-.488-.006-.73zM21.365 17.862a.963.963 0 0 0-1.349.192c-.122.163-.25.324-.383.48a.964.964 0 0 0 1.467 1.248c.158-.185.311-.377.457-.572a.963.963 0 0 0-.192-1.348zM22.78 14.38a.963.963 0 0 0-1.206.631 10.2 10.2 0 0 1-.202.58.964.964 0 0 0 1.8.685c.087-.226.167-.458.24-.689a.963.963 0 0 0-.631-1.207zM10.197 21.91a9.945 9.945 0 0 1-2.47-.786l-.027-.015a10.52 10.52 0 0 1-.548-.277l-.003-.002c-.327-.18-.647-.38-.958-.598-4.53-3.192-5.62-9.475-2.428-14.005a10.009 10.009 0 0 1 2.47-2.458l.035-.024c3.3-2.274 7.78-2.427 11.283-.09L16.8 4.741c-.21.302-.08.523.285.49l3.27-.293a.538.538 0 0 0 .486-.704l-.877-3.163c-.099-.354-.35-.397-.56-.094l-.754 1.09A11.895 11.895 0 0 0 9.933.215c-.308.053-.612.118-.912.194L9.015.41l-.034.01a11.876 11.876 0 0 0-6.586 4.414c-.014.016-.028.032-.041.05a11.345 11.345 0 0 0-.417.6l-.027.047a11.874 11.874 0 0 0-1.898 7.004v.024c.011.242.03.487.056.728l.008.046a11.887 11.887 0 0 0 3.455 7.175l.012.012.004.004c.471.464.983.894 1.535 1.282a11.876 11.876 0 0 0 4.775 2 .963.963 0 1 0 .34-1.897z"/>
        <path fill="#5E6B85" fill-rule="nonzero" d="M11.388 4.233a.78.78 0 0 0-.78.78v7.763l7.101 3.671a.78.78 0 0 0 .716-1.384l-6.258-3.236V5.013a.78.78 0 0 0-.779-.78z"/>
    </g>
</symbol>
<symbol id="icon-injection" viewBox="0 0 21 21">
    <path fill-rule="evenodd" d="M3.903 14l2.908 2.989-1.417 1.456.918.944a.962.962 0 0 1 0 1.335.9.9 0 0 1-1.299 0L.27 15.847a.962.962 0 0 1 0-1.334.9.9 0 0 1 1.299 0l.918.943L3.903 14zM20.739.268a.934.934 0 0 1 0 1.295l-3.991 4.102 1.174 4.232a.933.933 0 0 1-.227.898l-6.83 7.02a.879.879 0 0 1-.63.268.879.879 0 0 1-.63-.268l-5.939-6.104a.929.929 0 0 1-.26-.647c0-.243.093-.476.26-.648l6.83-7.02a.874.874 0 0 1 .875-.233l4.117 1.207L19.48.268a.874.874 0 0 1 1.26 0zM8.945 11.874a.747.747 0 0 0 0-1.036l-1.51-1.553-1.009 1.036 1.511 1.553a.7.7 0 0 0 1.008 0zm1.643-1.688a.747.747 0 0 0 0-1.036L9.077 7.597 8.069 8.633l1.51 1.553a.701.701 0 0 0 1.009 0zm1.642-1.688a.747.747 0 0 0 0-1.036l-1.51-1.553L9.71 6.945l1.511 1.553a.7.7 0 0 0 1.008 0z"/>
</symbol>
<symbol id="icon-biotest" viewBox="0 0 12 16">
    <path fill-rule="nonzero" d="M6.5.305a.728.728 0 0 0-1.186 0C3.85 2.349.18 7.727.18 10.26a5.728 5.728 0 1 0 11.457 0c0-2.534-3.671-7.912-5.136-9.956zM3.896 13.503a.794.794 0 0 1-1.12.096c-2.26-1.902-1.48-4.712-1.446-4.831a.795.795 0 0 1 1.53.438c-.025.09-.513 1.952.94 3.176a.796.796 0 0 1 .096 1.121zm1.563 1.58a.846.846 0 1 1 .003-1.692.846.846 0 0 1-.003 1.692z"/>
</symbol>
<symbol id="icon-print" viewBox="0 0 475.078 475.077">
	<path d="M458.959,217.124c-10.759-10.758-23.654-16.134-38.69-16.134h-18.268v-73.089c0-7.611-1.91-15.99-5.719-25.122
		c-3.806-9.136-8.371-16.368-13.699-21.698L339.18,37.683c-5.328-5.325-12.56-9.895-21.692-13.704
		c-9.138-3.805-17.508-5.708-25.126-5.708H100.5c-7.614,0-14.087,2.663-19.417,7.993c-5.327,5.327-7.994,11.799-7.994,19.414V200.99
		H54.818c-15.037,0-27.932,5.379-38.688,16.134C5.376,227.876,0,240.772,0,255.81v118.773c0,2.478,0.905,4.609,2.712,6.426
		c1.809,1.804,3.951,2.707,6.423,2.707h63.954v45.68c0,7.617,2.664,14.089,7.994,19.417c5.33,5.325,11.803,7.994,19.417,7.994
		h274.083c7.611,0,14.093-2.669,19.418-7.994c5.328-5.332,7.994-11.8,7.994-19.417v-45.68h63.953c2.471,0,4.613-0.903,6.42-2.707
		c1.807-1.816,2.71-3.948,2.71-6.426V255.81C475.082,240.772,469.708,227.876,458.959,217.124z M365.449,420.262H109.636v-73.087
		h255.813V420.262z M365.449,237.537H109.636V54.816h182.726v45.679c0,7.614,2.669,14.083,7.991,19.414
		c5.328,5.33,11.799,7.993,19.417,7.993h45.679V237.537z M433.116,268.656c-3.614,3.614-7.898,5.428-12.847,5.428
		c-4.949,0-9.233-1.813-12.848-5.428c-3.613-3.61-5.42-7.898-5.42-12.847s1.807-9.232,5.42-12.847
		c3.614-3.617,7.898-5.426,12.848-5.426c4.948,0,9.232,1.809,12.847,5.426c3.613,3.614,5.427,7.898,5.427,12.847
		S436.733,265.046,433.116,268.656z"/>
</symbol>
<symbol id="icon-ok" viewBox="0 0 16 16">
    <g fill="none" fill-rule="evenodd" transform="translate(1 1)">
        <path fill="#8BBE44" d="M9.783 4L5.435 7.846 4.217 6.769 3 7.846 5.435 10 11 5.077z"/>
        <circle cx="7" cy="7" r="7" stroke="#8BBE44" stroke-width="1.5"/>
    </g>
</symbol>
<symbol id="icon-calendar" viewBox="0 0 16 18">
    <path fill-rule="nonzero" d="M15.614 2.822a1.18 1.18 0 0 0-.864-.365h-1.228v-.921c0-.423-.15-.784-.451-1.085C12.77.151 12.409 0 11.986 0h-.614c-.422 0-.784.15-1.084.451-.301.3-.451.662-.451 1.085v.92H6.15v-.92c0-.423-.15-.784-.45-1.085C5.4.151 5.037 0 4.615 0h-.614c-.423 0-.784.15-1.085.451-.3.3-.45.662-.45 1.085v.92h-1.23c-.332 0-.62.122-.863.366a1.18 1.18 0 0 0-.365.863V15.97c0 .332.122.62.365.863s.53.365.864.365H14.75c.333 0 .62-.122.864-.365a1.18 1.18 0 0 0 .364-.863V3.685c0-.332-.121-.62-.364-.863zM4.002 15.969H1.238v-2.764h2.764v2.764zm0-3.378H1.238v-3.07h2.764v3.07zm0-3.685H1.238V6.142h2.764v2.764zm-.216-4.39a.295.295 0 0 1-.091-.217V1.536c0-.083.03-.156.09-.216a.295.295 0 0 1 .217-.091h.614c.083 0 .155.03.216.09.06.062.091.134.091.217v2.763c0 .084-.03.156-.091.216a.295.295 0 0 1-.216.092h-.614a.295.295 0 0 1-.216-.092zm3.9 11.453h-3.07v-2.764h3.07v2.764zm0-3.378h-3.07v-3.07h3.07v3.07zm0-3.685h-3.07V6.142h3.07v2.764zm3.686 7.063h-3.07v-2.764h3.07v2.764zm0-3.378h-3.07v-3.07h3.07v3.07zm0-3.685h-3.07V6.142h3.07v2.764zm-.216-4.39a.295.295 0 0 1-.09-.217V1.536c0-.083.03-.156.09-.216a.295.295 0 0 1 .216-.091h.614c.084 0 .155.03.216.09.061.062.091.134.091.217v2.763c0 .084-.03.156-.09.216a.295.295 0 0 1-.217.092h-.614a.295.295 0 0 1-.216-.092zm3.594 11.453h-2.764v-2.764h2.764v2.764zm0-3.378h-2.764v-3.07h2.764v3.07zm0-3.685h-2.764V6.142h2.764v2.764z"/>
</symbol>
<symbol id="icon-lock"  viewBox="0 0 486.733 486.733">
<g>
	<path d="M403.88,196.563h-9.484v-44.388c0-82.099-65.151-150.681-146.582-152.145c-2.225-0.04-6.671-0.04-8.895,0
		C157.486,1.494,92.336,70.076,92.336,152.175v44.388h-9.485c-14.616,0-26.538,15.082-26.538,33.709v222.632
		c0,18.606,11.922,33.829,26.539,33.829h321.028c14.616,0,26.539-15.223,26.539-33.829V230.272
		C430.419,211.646,418.497,196.563,403.88,196.563z M273.442,341.362v67.271c0,7.703-6.449,14.222-14.158,14.222H227.45
		c-7.71,0-14.159-6.519-14.159-14.222v-67.271c-7.477-7.36-11.83-17.537-11.83-28.795c0-21.334,16.491-39.666,37.459-40.513
		c2.222-0.09,6.673-0.09,8.895,0c20.968,0.847,37.459,19.179,37.459,40.513C285.272,323.825,280.919,334.002,273.442,341.362z
		 M331.886,196.563h-84.072h-8.895h-84.072v-44.388c0-48.905,39.744-89.342,88.519-89.342c48.775,0,88.521,40.437,88.521,89.342
		V196.563z"/>
</g>
</symbol>
<symbol id="icon-clock"  viewBox="0 0 18 18">
    <path fill-rule="nonzero" stroke="#979797" d="M9 1c4.411 0 8 3.589 8 8s-3.589 8-8 8-8-3.589-8-8 3.589-8 8-8zm0 14.298A6.305 6.305 0 0 0 15.298 9 6.305 6.305 0 0 0 9 2.702 6.305 6.305 0 0 0 2.702 9 6.305 6.305 0 0 0 9 15.298zm3.138-6.837c.366 0 .662.3.662.67 0 .37-.296.669-.662.669H8.862a.666.666 0 0 1-.662-.67V5.07c0-.37.296-.67.662-.67.366 0 .662.3.662.67V8.46h2.614z"/>
</symbol>
<symbol id="icon-more" viewBox="0 0 24 24">
<path d="M14 12c0-0.552-0.225-1.053-0.586-1.414s-0.862-0.586-1.414-0.586-1.053 0.225-1.414 0.586-0.586 0.862-0.586 1.414 0.225 1.053 0.586 1.414 0.862 0.586 1.414 0.586 1.053-0.225 1.414-0.586 0.586-0.862 0.586-1.414zM14 5c0-0.552-0.225-1.053-0.586-1.414s-0.862-0.586-1.414-0.586-1.053 0.225-1.414 0.586-0.586 0.862-0.586 1.414 0.225 1.053 0.586 1.414 0.862 0.586 1.414 0.586 1.053-0.225 1.414-0.586 0.586-0.862 0.586-1.414zM14 19c0-0.552-0.225-1.053-0.586-1.414s-0.862-0.586-1.414-0.586-1.053 0.225-1.414 0.586-0.586 0.862-0.586 1.414 0.225 1.053 0.586 1.414 0.862 0.586 1.414 0.586 1.053-0.225 1.414-0.586 0.586-0.862 0.586-1.414z"></path>
</symbol>
<symbol id="icon-basket" viewBox="0 0 10 15">
    <g fill-rule="nonzero">
        <path d="M9.068.905H7.257C7.257.405 6.85 0 6.35 0H3.635c-.5 0-.906.406-.906.905H.92c-.5 0-.906.406-.906.906h9.96c0-.5-.405-.906-.905-.906zM.013 13.582c0 .5.406.906.905.906h8.15c.5 0 .905-.406.905-.906V2.716H.013v10.866zM7.257 4.98a.453.453 0 0 1 .905 0v7.244a.454.454 0 0 1-.452.453.454.454 0 0 1-.453-.453V4.98zm-2.717 0a.453.453 0 0 1 .906 0v7.244a.453.453 0 0 1-.905 0V4.98zm-2.716 0a.453.453 0 0 1 .905 0v7.244a.453.453 0 0 1-.905 0V4.98z"/>
    </g>
</symbol>
<symbol id="icon-save" viewBox="0 0 16 16">
    <path d="M2.667 0v4H12V0h.505c.53 0 1.039.21 1.414.585l1.495 1.496c.375.375.586.884.586 1.414v11.172c0 .736-.597 1.333-1.333 1.333H1.333C.597 16 0 15.403 0 14.667V1.333C0 .597.597 0 1.333 0h1.334zm10.666 6.623H2.667v6.71h10.666v-6.71zM12 10.667V12H4v-1.333h8zM12 8v1.333H4V8h8zm-1.333-8v2.667h-2V0h2z"/>
</symbol>
<symbol id="icon-close" viewBox="0 0 212.982 212.982">
    <g>
        <path style="fill-rule:evenodd;clip-rule:evenodd;" d="M131.804,106.491l75.936-75.936c6.99-6.99,6.99-18.323,0-25.312
            c-6.99-6.99-18.322-6.99-25.312,0l-75.937,75.937L30.554,5.242c-6.99-6.99-18.322-6.99-25.312,0c-6.989,6.99-6.989,18.323,0,25.312
            l75.937,75.936L5.242,182.427c-6.989,6.99-6.989,18.323,0,25.312c6.99,6.99,18.322,6.99,25.312,0l75.937-75.937l75.937,75.937
            c6.989,6.99,18.322,6.99,25.312,0c6.99-6.99,6.99-18.322,0-25.312L131.804,106.491z"/>
    </g>
</symbol>
<symbol id="icon-upload" viewBox="0 0 16 17">
    <path fill-rule="evenodd" d="M12.163 7.677a.525.525 0 0 1-.083.564l-3.684 4.21a.528.528 0 0 1-.792 0L3.92 8.242a.525.525 0 0 1 .396-.873H6.42V.526c0-.29.236-.526.526-.526h2.106c.29 0 .526.236.526.526v6.842h2.105c.207 0 .394.12.48.309zm1.704 3.691H16v4.38c0 .605-.477 1.094-1.067 1.094H1.067c-.59 0-1.067-.49-1.067-1.095v-4.379h2.133v3.285h11.734v-3.285z"/>
</symbol>
<symbol id="icon-upload2" viewBox="0 0 10 15">
    <path fill-rule="evenodd" d="M.004 6.142a.632.632 0 0 0 .575.356h2.526v7.895a.62.62 0 0 0 .632.607h2.526a.62.62 0 0 0 .632-.607V6.498H9.42c.248 0 .472-.14.575-.356a.588.588 0 0 0-.1-.65L5.475.631a.645.645 0 0 0-.95 0L.104 5.493a.587.587 0 0 0-.1.65z"/>
</symbol>
<symbol id="icon-logout"  viewBox="0 0 512 512">
<g>
	<g>
		<path d="M505.664,243.739l-54.783-38.622c-9.926-6.997-23.645,0.128-23.645,12.26v23.622H164.196
			c-8.284,0-15.001,6.716-15.001,15.001S155.912,271,164.196,271h263.038v23.621c0,12.212,13.792,19.204,23.644,12.26l54.783-38.622
			C514.027,262.365,514.196,249.767,505.664,243.739z"/>
	</g>
</g>
<g>
	<g>
		<path d="M430.471,352.317c-7.169-4.146-16.347-1.698-20.496,5.474c-35.236,60.916-101.103,101.811-176.372,101.811
			c-112.266,0-203.602-91.336-203.602-203.602S121.337,52.398,233.603,52.398c75.319,0,141.156,40.933,176.371,101.809
			c4.148,7.172,13.328,9.619,20.496,5.474c7.171-4.148,9.621-13.325,5.474-20.496C395.418,69.127,319.729,22.397,233.603,22.397
			C104.49,22.397,0,126.876,0,256c0,129.113,104.479,233.603,233.603,233.603c86.163,0,161.833-46.763,202.342-116.79
			C440.092,365.642,437.642,356.466,430.471,352.317z"/>
	</g>
</g>
</symbol>
<symbol id="icon-user"   viewBox="0 0 24 24">
    <g id="Page-1" stroke="none" stroke-width="1" fill="none" fill-rule="evenodd" opacity="0.2">
        <g id="01---Settings" transform="translate(-1042.000000, -383.000000)">
            <g id="Group-2" transform="translate(1009.000000, 383.000000)">
                <g id="Group" transform="translate(33.000000, 0.000000)">
                    <path d="M14.8,14.8666563 C16.3333281,13.9333126 17.3333126,12.2666719 17.3333126,10.3333437 C17.3333437,7.4 14.9333126,5 12,5 C9.06668745,5 6.66665628,7.4 6.66665628,10.3333437 C6.66665628,12.2666719 7.66664069,13.9333437 9.19996883,14.8666563 C6.53331255,15.8666719 4.53331255,18.2 4,21 L5.33334372,21 C6,17.9333437 8.73335931,15.6666563 12,15.6666563 C15.2666407,15.6666563 18,17.9333126 18.6666563,21 L20,21 C19.4666874,18.1333281 17.4666874,15.8 14.8,14.8666563 Z M8,10.3333437 C8,8.13335931 9.80001558,6.33334372 12,6.33334372 C14.1999844,6.33334372 16,8.13335931 16,10.3333437 C16,12.5333281 14.1999844,14.3333437 12,14.3333437 C9.80001558,14.3333437 8,12.5333281 8,10.3333437 Z" id="Shape" fill="#253149" fill-rule="nonzero"></path>
                    <rect id="Rectangle" stroke="#253149" x="0.5" y="0.5" width="23" height="23" rx="4"></rect>
                </g>
            </g>
        </g>
    </g>
</symbol>
<symbol id="icon-calendar" viewBox="0 0 511.634 511.634">
<g>
	<path d="M482.513,83.942c-7.225-7.233-15.797-10.85-25.694-10.85h-36.541v-27.41c0-12.56-4.477-23.315-13.422-32.261
		C397.906,4.475,387.157,0,374.591,0h-18.268c-12.565,0-23.318,4.475-32.264,13.422c-8.949,8.945-13.422,19.701-13.422,32.261v27.41
		h-109.63v-27.41c0-12.56-4.475-23.315-13.422-32.261C178.64,4.475,167.886,0,155.321,0H137.05
		c-12.562,0-23.317,4.475-32.264,13.422c-8.945,8.945-13.421,19.701-13.421,32.261v27.41H54.823c-9.9,0-18.464,3.617-25.697,10.85
		c-7.233,7.232-10.85,15.8-10.85,25.697v365.453c0,9.89,3.617,18.456,10.85,25.693c7.232,7.231,15.796,10.849,25.697,10.849h401.989
		c9.897,0,18.47-3.617,25.694-10.849c7.234-7.234,10.852-15.804,10.852-25.693V109.639
		C493.357,99.739,489.743,91.175,482.513,83.942z M137.047,475.088H54.823v-82.23h82.224V475.088z M137.047,374.59H54.823v-91.358
		h82.224V374.59z M137.047,264.951H54.823v-82.223h82.224V264.951z M130.627,134.333c-1.809-1.809-2.712-3.946-2.712-6.423V45.686
		c0-2.474,0.903-4.617,2.712-6.423c1.809-1.809,3.946-2.712,6.423-2.712h18.271c2.474,0,4.617,0.903,6.423,2.712
		c1.809,1.807,2.714,3.949,2.714,6.423v82.224c0,2.478-0.909,4.615-2.714,6.423c-1.807,1.809-3.946,2.712-6.423,2.712H137.05
		C134.576,137.046,132.436,136.142,130.627,134.333z M246.683,475.088h-91.365v-82.23h91.365V475.088z M246.683,374.59h-91.365
		v-91.358h91.365V374.59z M246.683,264.951h-91.365v-82.223h91.365V264.951z M356.323,475.088h-91.364v-82.23h91.364V475.088z
		 M356.323,374.59h-91.364v-91.358h91.364V374.59z M356.323,264.951h-91.364v-82.223h91.364V264.951z M349.896,134.333
		c-1.807-1.809-2.707-3.946-2.707-6.423V45.686c0-2.474,0.9-4.617,2.707-6.423c1.808-1.809,3.949-2.712,6.427-2.712h18.268
		c2.478,0,4.617,0.903,6.427,2.712c1.808,1.807,2.707,3.949,2.707,6.423v82.224c0,2.478-0.903,4.615-2.707,6.423
		c-1.807,1.809-3.949,2.712-6.427,2.712h-18.268C353.846,137.046,351.697,136.142,349.896,134.333z M456.812,475.088h-82.228v-82.23
		h82.228V475.088z M456.812,374.59h-82.228v-91.358h82.228V374.59z M456.812,264.951h-82.228v-82.223h82.228V264.951z"/>
</g>
</symbol>
<symbol id="icon-warning" viewBox="0 0 24 24">
    <path fill-rule="evenodd" d="M1 21h22L12 2 1 21zm12-3h-2v-2h2v2zm0-4h-2v-4h2v4z"/>
</symbol>
<symbol id="icon-warning-yellow" viewBox="0 0 24 24">
    <path fill="#e0e039" fill-rule="evenodd" d="M1 21h22L12 2 1 21zm12-3h-2v-2h2v2zm0-4h-2v-4h2v4z"/>
</symbol>
<symbol id="icon-minus" viewBox="0 0 459.313 459.314">
<path d="M459.313,229.648c0,22.201-17.992,40.199-40.205,40.199H40.181c-11.094,0-21.14-4.498-28.416-11.774
		C4.495,250.808,0,240.76,0,229.66c-0.006-22.204,17.992-40.199,40.202-40.193h378.936
		C441.333,189.472,459.308,207.456,459.313,229.648z"/>
</symbol>
<symbol id="icon-radiation" viewBox="0 0 16 15">
    <g fill-rule="nonzero">
        <path d="M9.148 7.315a1.347 1.347 0 0 0-1.153-.678 1.347 1.347 0 0 0-.7.182 1.347 1.347 0 0 0-.63.823c-.095.35-.047.715.135 1.03.18.313.473.537.823.63a1.358 1.358 0 0 0 1.525-1.988zM6.507 6.32c.109-.094.227-.179.355-.253a2.21 2.21 0 0 1 1.687-.222c.335.09.638.253.891.476l2.68-4.64a.434.434 0 0 0-.16-.594 8.003 8.003 0 0 0-7.973.001.434.434 0 0 0-.158.593l2.678 4.64zM15.82 7.686a.423.423 0 0 0-.306-.127h-5.36a2.227 2.227 0 0 1-1.466 2.54l2.68 4.64a.434.434 0 0 0 .592.159 8.003 8.003 0 0 0 3.987-6.904.433.433 0 0 0-.126-.308zM6.048 9.105a2.207 2.207 0 0 1-.255-1.546H.433A.434.434 0 0 0 0 7.993a7.97 7.97 0 0 0 1.07 3.986 7.97 7.97 0 0 0 2.917 2.92.432.432 0 0 0 .593-.16l2.68-4.64a2.207 2.207 0 0 1-1.212-.994z"/>
    </g>
</symbol>
<symbol id="icon-consultation" viewBox="0 0 7 16">
    <path fill-rule="nonzero" d="M1.722 2.238c-.024-.097-.073-.193-.098-.385C1.6 1.756 1.6 1.636 1.6 1.54s0-.193.024-.313c.025-.096.05-.192.098-.289.049-.096.098-.192.147-.264.049-.072.122-.145.195-.217.073-.072.147-.12.244-.192.074-.048.171-.097.27-.145h.024c.097-.048.195-.072.293-.096C2.992 0 3.115 0 3.212 0c.098 0 .196 0 .318.024.097.024.195.048.293.096.098.048.17.097.269.145.097.072.17.12.244.192l.049.048c.122.12.22.265.293.433.049.12.073.217.098.313.024.096.024.217.024.313s0 .216-.024.313c-.025.096-.05.216-.098.312-.025.025-.025.025-.025.049a.748.748 0 0 1-.122.24 1.325 1.325 0 0 1-.17.217l-.025.024c-.073.072-.147.144-.22.192-.098.072-.195.12-.293.169h-.025a.884.884 0 0 1-.268.096c-.098.024-.22.024-.318.024-.097 0-.195 0-.317-.024a1.223 1.223 0 0 1-.318-.096c-.122-.024-.22-.097-.293-.145-.098-.072-.171-.144-.244-.216-.05-.072-.122-.145-.171-.217a2.613 2.613 0 0 1-.147-.264zm3.87 10.592a.81.81 0 0 1 .808.8v1.6c0 .444-.373.77-.808.77H.808C.342 16 0 15.644 0 15.23v-1.6c0-.445.373-.77.808-.77h.652V7.94H.808C.342 7.94 0 7.586 0 7.17v-1.6c0-.444.373-.77.808-.77H4.07c.466 0 .808.356.808.77v7.26h.714z" />
</symbol>
<symbol id="icon-envelope" viewBox="0 0 20 15">
    <path d="M20.0001 0.769287H0.769287V13.8462H20.0001V0.769287Z" fill="#E3E6F7"/>
    <path d="M18.125 0H1.87501C0.841067 0 0 0.8195 0 1.82693V12.7885C0 13.7959 0.841067 14.6154 1.87501 14.6154H18.125C19.1589 14.6154 20 13.7959 20 12.7885V1.82693C20 0.8195 19.1589 0 18.125 0ZM18.125 1.21794C18.2099 1.21794 18.2907 1.23511 18.3645 1.26509L10 8.32879L1.63542 1.26509C1.70927 1.23515 1.79005 1.21794 1.87497 1.21794H18.125ZM18.125 13.3974H1.87501C1.53017 13.3974 1.24999 13.1245 1.24999 12.7884V2.55186L9.59045 9.5949C9.70826 9.69419 9.85413 9.74358 10 9.74358C10.1459 9.74358 10.2917 9.69423 10.4096 9.5949L18.75 2.55186V12.7885C18.75 13.1245 18.4698 13.3974 18.125 13.3974Z" />
</symbol>
<symbol id="icon-circle-check" viewBox="0 0 12 12">
    <path d="M6 12C9.03757 12 11.5 9.53757 11.5 6.5C11.5 3.46243 9.03757 1 6 1C2.96243 1 0.5 3.46243 0.5 6.5C0.5 9.53757 2.96243 12 6 12Z" fill="#E3E6F7"/>
    <path d="M5.98047 0C2.68282 0 0 2.68278 0 5.98039C0 9.278 2.68282 11.9608 5.98047 11.9608C9.27808 11.9608 11.9609 9.278 11.9609 5.98039C11.9609 2.68278 9.27808 0 5.98047 0ZM5.98047 10.9804C3.22341 10.9804 0.980392 8.73745 0.980392 5.98039C0.980392 3.22337 3.22341 0.980392 5.98047 0.980392C8.73749 0.980392 10.9805 3.22337 10.9805 5.98039C10.9805 8.73745 8.73749 10.9804 5.98047 10.9804Z" />
    <path d="M8.24727 4.09819L5.13611 7.01L3.71367 5.67872C3.54592 5.52176 3.274 5.52176 3.10625 5.67872C2.93854 5.83572 2.93854 6.09022 3.10625 6.24721L4.8324 7.86274C4.91627 7.9412 5.02619 7.98047 5.13611 7.98047C5.24602 7.98047 5.35594 7.9412 5.43981 7.86274L8.85469 4.66671C9.0224 4.50971 9.0224 4.25522 8.85469 4.09822C8.68694 3.94122 8.41498 3.94122 8.24727 4.09819Z" />
</symbol>
    <symbol id="icon-circle-check-green" viewBox="0 0 12 12">
        <path d="M6 12C9.03757 12 11.5 9.53757 11.5 6.5C11.5 3.46243 9.03757 1 6 1C2.96243 1 0.5 3.46243 0.5 6.5C0.5 9.53757 2.96243 12 6 12Z" fill="#EDF1E8"/>
        <path d="M5.98047 0C2.68282 0 0 2.68278 0 5.98039C0 9.278 2.68282 11.9608 5.98047 11.9608C9.27808 11.9608 11.9609 9.278 11.9609 5.98039C11.9609 2.68278 9.27808 0 5.98047 0ZM5.98047 10.9804C3.22341 10.9804 0.980392 8.73745 0.980392 5.98039C0.980392 3.22337 3.22341 0.980392 5.98047 0.980392C8.73749 0.980392 10.9805 3.22337 10.9805 5.98039C10.9805 8.73745 8.73749 10.9804 5.98047 10.9804Z" fill="#8bbe44"/>
        <path d="M8.24727 4.09819L5.13611 7.01L3.71367 5.67872C3.54592 5.52176 3.274 5.52176 3.10625 5.67872C2.93854 5.83572 2.93854 6.09022 3.10625 6.24721L4.8324 7.86274C4.91627 7.9412 5.02619 7.98047 5.13611 7.98047C5.24602 7.98047 5.35594 7.9412 5.43981 7.86274L8.85469 4.66671C9.0224 4.50971 9.0224 4.25522 8.85469 4.09822C8.68694 3.94122 8.41498 3.94122 8.24727 4.09819Z" fill="#8bbe44"/>
    </symbol>
</svg>
